<mxfile host="app.diagrams.net" modified="2021-09-14T12:32:13.624Z" agent="5.0 (Macintosh; Intel Mac OS X 10_15_7) AppleWebKit/537.36 (KHTML, like Gecko) Chrome/92.0.4515.159 Safari/537.36" etag="WuWzrqTLDOSMzC8hvL67" version="15.2.5" type="github">
  <diagram id="UT6CQ0aGT2ah0f1vwliN" name="Page-1">
    <mxGraphModel dx="946" dy="437" grid="1" gridSize="10" guides="1" tooltips="1" connect="1" arrows="1" fold="1" page="1" pageScale="1" pageWidth="827" pageHeight="1169" math="0" shadow="0">
      <root>
        <mxCell id="0" />
        <mxCell id="1" parent="0" />
        <mxCell id="9AK-smrYLAihpcT2MgaO-4" value="&lt;span&gt;Funplus.FrameGraph.Nodes&lt;br&gt;&lt;/span&gt;" style="rounded=0;whiteSpace=wrap;html=1;" vertex="1" parent="1">
          <mxGeometry x="460" y="270" width="190" height="40" as="geometry" />
        </mxCell>
        <mxCell id="9AK-smrYLAihpcT2MgaO-20" style="edgeStyle=orthogonalEdgeStyle;rounded=0;orthogonalLoop=1;jettySize=auto;html=1;" edge="1" parent="1" source="9AK-smrYLAihpcT2MgaO-9" target="9AK-smrYLAihpcT2MgaO-4">
          <mxGeometry relative="1" as="geometry" />
        </mxCell>
        <mxCell id="9AK-smrYLAihpcT2MgaO-9" value="&lt;span&gt;Funplus.FrameGraph.Editor&lt;br&gt;&lt;/span&gt;" style="rounded=0;whiteSpace=wrap;html=1;" vertex="1" parent="1">
          <mxGeometry x="120" y="270" width="190" height="40" as="geometry" />
        </mxCell>
        <mxCell id="9AK-smrYLAihpcT2MgaO-10" value="&lt;span&gt;Universal.Editor&lt;br&gt;&lt;/span&gt;" style="rounded=0;whiteSpace=wrap;html=1;" vertex="1" parent="1">
          <mxGeometry x="490" y="100" width="190" height="40" as="geometry" />
        </mxCell>
        <mxCell id="9AK-smrYLAihpcT2MgaO-11" value="&lt;span&gt;Universal.Runtime&lt;br&gt;&lt;/span&gt;" style="rounded=0;whiteSpace=wrap;html=1;" vertex="1" parent="1">
          <mxGeometry x="260" y="100" width="190" height="40" as="geometry" />
        </mxCell>
        <mxCell id="9AK-smrYLAihpcT2MgaO-12" value="" style="endArrow=classic;html=1;entryX=0.75;entryY=1;entryDx=0;entryDy=0;exitX=0.5;exitY=0;exitDx=0;exitDy=0;" edge="1" parent="1" source="9AK-smrYLAihpcT2MgaO-9" target="9AK-smrYLAihpcT2MgaO-11">
          <mxGeometry width="50" height="50" relative="1" as="geometry">
            <mxPoint x="407.5" y="270" as="sourcePoint" />
            <mxPoint x="200" y="130" as="targetPoint" />
          </mxGeometry>
        </mxCell>
        <mxCell id="9AK-smrYLAihpcT2MgaO-13" value="" style="endArrow=classic;html=1;exitX=0.75;exitY=0;exitDx=0;exitDy=0;entryX=0.25;entryY=1;entryDx=0;entryDy=0;" edge="1" parent="1" source="9AK-smrYLAihpcT2MgaO-9" target="9AK-smrYLAihpcT2MgaO-10">
          <mxGeometry width="50" height="50" relative="1" as="geometry">
            <mxPoint x="455" y="270" as="sourcePoint" />
            <mxPoint x="352.5" y="70" as="targetPoint" />
          </mxGeometry>
        </mxCell>
        <mxCell id="9AK-smrYLAihpcT2MgaO-14" value="&lt;span&gt;Funplus.FrameGraph.xNodes&lt;br&gt;&lt;/span&gt;" style="rounded=0;whiteSpace=wrap;html=1;" vertex="1" parent="1">
          <mxGeometry x="40" y="100" width="190" height="40" as="geometry" />
        </mxCell>
        <mxCell id="9AK-smrYLAihpcT2MgaO-15" value="" style="endArrow=classic;html=1;exitX=0.25;exitY=0;exitDx=0;exitDy=0;entryX=0.25;entryY=1;entryDx=0;entryDy=0;" edge="1" parent="1" source="9AK-smrYLAihpcT2MgaO-9" target="9AK-smrYLAihpcT2MgaO-14">
          <mxGeometry width="50" height="50" relative="1" as="geometry">
            <mxPoint x="352.5" y="330" as="sourcePoint" />
            <mxPoint x="547.5" y="150" as="targetPoint" />
          </mxGeometry>
        </mxCell>
        <mxCell id="9AK-smrYLAihpcT2MgaO-17" value="" style="endArrow=classic;html=1;entryX=0.5;entryY=1;entryDx=0;entryDy=0;" edge="1" parent="1" target="9AK-smrYLAihpcT2MgaO-14">
          <mxGeometry width="50" height="50" relative="1" as="geometry">
            <mxPoint x="510" y="270" as="sourcePoint" />
            <mxPoint x="580" y="230" as="targetPoint" />
          </mxGeometry>
        </mxCell>
        <mxCell id="9AK-smrYLAihpcT2MgaO-18" value="" style="endArrow=classic;html=1;entryX=0.25;entryY=1;entryDx=0;entryDy=0;exitX=0.5;exitY=0;exitDx=0;exitDy=0;" edge="1" parent="1" source="9AK-smrYLAihpcT2MgaO-4" target="9AK-smrYLAihpcT2MgaO-11">
          <mxGeometry width="50" height="50" relative="1" as="geometry">
            <mxPoint x="540" y="290" as="sourcePoint" />
            <mxPoint x="145" y="150" as="targetPoint" />
          </mxGeometry>
        </mxCell>
        <mxCell id="9AK-smrYLAihpcT2MgaO-19" value="" style="endArrow=classic;html=1;entryX=0.5;entryY=1;entryDx=0;entryDy=0;exitX=0.75;exitY=0;exitDx=0;exitDy=0;" edge="1" parent="1" source="9AK-smrYLAihpcT2MgaO-4" target="9AK-smrYLAihpcT2MgaO-10">
          <mxGeometry width="50" height="50" relative="1" as="geometry">
            <mxPoint x="565" y="290" as="sourcePoint" />
            <mxPoint x="317.5" y="150" as="targetPoint" />
          </mxGeometry>
        </mxCell>
      </root>
    </mxGraphModel>
  </diagram>
</mxfile>
